HIERARCHY
ROOT SpineBase
{
  OFFSET 0.000000 0.000000 0.000000
  CHANNELS 6 Xposition Yposition Zposition Zrotation Xrotation Yrotation
  JOINT SpineMid
  {
    OFFSET -0.000000 29.194852 0.000000
    CHANNELS 3 Zrotation Xrotation Yrotation
    JOINT SpineShoulder
    {
      OFFSET -0.019423 21.653515 -0.797814
      CHANNELS 3 Zrotation Xrotation Yrotation
      JOINT Neck
      {
        OFFSET -0.020675 7.159677 -0.582356
        CHANNELS 3 Zrotation Xrotation Yrotation
        JOINT Head
        {
          OFFSET -2.522692 13.352214 -0.930713
          CHANNELS 3 Zrotation Xrotation Yrotation
          End Site
          {
            OFFSET 0 0 0
          }
        }
      }
      JOINT ShoulderLeft
      {
        OFFSET -15.986017 -4.838005 5.173650
        CHANNELS 3 Zrotation Xrotation Yrotation
        JOINT ElbowLeft
        {
          OFFSET -0.891175 -26.293117 2.863789
          CHANNELS 3 Zrotation Xrotation Yrotation
          JOINT WristLeft
          {
            OFFSET 1.772569 -21.040641 -4.536149
            CHANNELS 3 Zrotation Xrotation Yrotation
            JOINT HandLeft
            {
              OFFSET 0.431635 -5.247307 -0.891067
              CHANNELS 3 Zrotation Xrotation Yrotation
              JOINT HandTipLeft
              {
                OFFSET 2.565715 -7.892671 -2.700933
                CHANNELS 3 Zrotation Xrotation Yrotation
                End Site
                {
                  OFFSET 0 0 0
                }
              }
              JOINT ThumbLeft
              {
                OFFSET 2.892624 0.967247 -4.509619
                CHANNELS 3 Zrotation Xrotation Yrotation
                End Site
                {
                  OFFSET 0 0 0
                }
              }
            }
          }
        }
      }
      JOINT ShoulderRight
      {
        OFFSET 12.800640 -3.739500 -9.618021
        CHANNELS 3 Zrotation Xrotation Yrotation
        JOINT ElbowRight
        {
          OFFSET 5.131070 -22.840128 -1.140397
          CHANNELS 3 Zrotation Xrotation Yrotation
          JOINT WristRight
          {
            OFFSET -0.668213 -19.125089 -5.461799
            CHANNELS 3 Zrotation Xrotation Yrotation
            JOINT HandRight
            {
              OFFSET -1.223400 -7.261686 -0.032549
              CHANNELS 3 Zrotation Xrotation Yrotation
              JOINT HandTipRight
              {
                OFFSET 0.243196 -6.718691 0.177819
                CHANNELS 3 Zrotation Xrotation Yrotation
                End Site
                {
                  OFFSET 0 0 0
                }
              }
              JOINT ThumbRight
              {
                OFFSET -3.316562 1.094632 0.476457
                CHANNELS 3 Zrotation Xrotation Yrotation
                End Site
                {
                  OFFSET 0 0 0
                }
              }
            }
          }
        }
      }
    }
  }
  JOINT HipLeft
  {
    OFFSET -5.626149 0.028201 -0.673810
    CHANNELS 3 Zrotation Xrotation Yrotation
    JOINT KneeLeft
    {
      OFFSET 4.958638 -25.989908 6.667758
      CHANNELS 3 Zrotation Xrotation Yrotation
      JOINT AnkleLeft
      {
        OFFSET 4.897953 -34.229030 9.318807
        CHANNELS 3 Zrotation Xrotation Yrotation
        JOINT FootLeft
        {
          OFFSET -3.409022 -2.908915 -10.137447
          CHANNELS 3 Zrotation Xrotation Yrotation
          End Site
          {
            OFFSET 0 0 0
          }
        }
      }
    }
  }
  JOINT HipRight
  {
    OFFSET 5.501025 1.485372 -6.034699
    CHANNELS 3 Zrotation Xrotation Yrotation
    JOINT KneeRight
    {
      OFFSET 8.403618 -25.024871 2.702291
      CHANNELS 3 Zrotation Xrotation Yrotation
      JOINT AnkleRight
      {
        OFFSET 4.476777 -33.910010 9.738123
        CHANNELS 3 Zrotation Xrotation Yrotation
        JOINT FootRight
        {
          OFFSET -3.543283 -2.905175 -10.128453
          CHANNELS 3 Zrotation Xrotation Yrotation
          End Site
          {
            OFFSET 0 0 0
          }
        }
      }
    }
  }
}
MOTION
Frames: 15
Frame Time: 0.033333
7.587801 76.794741 327.897216 0.000000 0.000000 25.724001 -0.000000 0.000000 -25.724001 -0.000000 0.000000 0.000000 -0.000000 0.000000 0.000000 0.000000 0.000000 0.000000 -0.000000 0.000000 0.000000 -0.000000 0.000000 0.000000 -0.000000 0.000000 0.000000 -0.000000 0.000000 0.000000 0.000000 0.000000 0.000000 0.000000 0.000000 0.000000 -0.000000 0.000000 0.000000 -0.000000 0.000000 0.000000 -0.000000 0.000000 0.000000 -0.000000 0.000000 0.000000 0.000000 0.000000 0.000000 0.000000 0.000000 0.000000 -0.000000 0.000000 -25.724001 -0.000000 0.000000 0.000000 -0.000000 0.000000 0.000000 0.000000 0.000000 0.000000 -0.000000 0.000000 -25.724001 -0.000000 0.000000 0.000000 -0.000000 0.000000 0.000000 0.000000 0.000000 0.000000
7.597803 76.784935 327.918027 0.016196 -0.012946 25.652631 -0.008995 0.018682 -25.652628 -0.000000 0.000000 0.000000 -0.000000 0.000000 0.000000 0.000000 0.000000 0.000000 -0.000000 0.000000 0.000000 -0.000000 0.000000 0.000000 -0.000000 0.000000 0.000000 -0.000000 0.000000 0.000000 0.000000 0.000000 0.000000 0.000000 0.000000 0.000000 -0.000000 0.000000 0.000000 -0.000000 0.000000 0.000000 -0.000000 0.000000 0.000000 -0.977364 -0.472324 -0.047003 0.000000 0.000000 0.000000 0.000000 0.000000 0.000000 -0.008995 0.018682 -25.652628 -0.000000 0.000000 0.000000 -0.000000 0.000000 0.000000 0.000000 0.000000 0.000000 -0.008995 0.018682 -25.652628 -0.000000 0.000000 0.000000 -0.000000 0.000000 0.000000 0.000000 0.000000 0.000000
7.602664 76.776211 327.931039 0.032118 -0.037814 25.605300 -0.012622 0.047980 -25.605284 -0.000000 0.000000 0.000000 -0.000000 0.000000 0.000000 0.000000 0.000000 0.000000 -0.000000 0.000000 0.000000 -0.000000 0.000000 0.000000 -0.000000 0.000000 0.000000 -0.000000 0.000000 0.000000 0.000000 0.000000 0.000000 0.000000 0.000000 0.000000 -0.000000 0.000000 0.000000 -0.000000 0.000000 0.000000 -0.234454 -0.803186 0.134683 -1.559207 -0.023032 -0.203306 0.000000 0.000000 0.000000 0.000000 0.000000 0.000000 -0.012622 0.047980 -25.605284 -0.000000 0.000000 0.000000 -0.000000 0.000000 0.000000 0.000000 0.000000 0.000000 -1.015798 -0.497995 -25.992787 0.662518 0.930341 0.378185 -0.000000 0.000000 0.000000 0.000000 0.000000 0.000000
7.602383 76.768569 327.936250 0.047770 -0.074598 25.582017 -0.010875 0.087912 -25.581978 -0.000000 0.000000 0.000000 -0.000000 0.000000 0.000000 0.000000 0.000000 0.000000 -0.000000 0.000000 0.000000 -0.000000 0.000000 0.000000 -0.827786 0.499421 0.185235 0.826199 -0.502042 -0.178007 0.000000 0.000000 0.000000 0.000000 0.000000 0.000000 -0.000000 0.000000 0.000000 -0.000000 0.000000 0.000000 -0.404688 -0.886000 0.147872 -2.055547 -0.187015 -0.243343 0.000000 0.000000 0.000000 0.000000 0.000000 0.000000 -0.010875 0.087912 -25.581978 0.682710 -0.797917 0.076235 -0.681714 0.798768 -0.066729 0.000000 0.000000 0.000000 -1.377535 -0.675384 -26.116659 0.891357 1.286825 0.517664 -0.000000 0.000000 0.000000 0.000000 0.000000 0.000000
7.596961 76.762010 327.933661 0.063153 -0.123301 25.582798 -0.003719 0.138483 -25.582725 -0.000000 0.000000 0.000000 -0.000000 0.000000 0.000000 0.000000 0.000000 0.000000 -0.000000 0.000000 0.000000 -0.000000 0.000000 0.000000 -0.864865 0.879821 0.225729 0.861494 -0.883121 -0.212449 0.000000 0.000000 0.000000 0.000000 0.000000 0.000000 -0.000000 0.000000 0.000000 -0.000000 0.000000 0.000000 -0.611867 -0.763091 0.127120 -2.372958 -0.452858 -0.250507 0.000000 0.000000 0.000000 0.000000 0.000000 0.000000 -0.003719 0.138483 -25.582725 0.827425 -0.926845 0.099013 -0.825930 0.928177 -0.085630 0.000000 0.000000 0.000000 -1.649886 -0.808847 -26.235286 1.058234 1.577202 0.628363 -0.000000 0.000000 0.000000 0.000000 0.000000 0.000000
7.586397 76.756533 327.923273 0.078271 -0.183925 25.607654 0.008911 0.199688 -25.607543 -0.000000 0.000000 0.000000 -0.000000 0.000000 0.000000 0.000000 0.000000 0.000000 -0.000000 0.000000 0.000000 -0.000000 0.000000 0.000000 -0.779626 1.366297 0.253712 0.551483 -2.171736 -0.428757 0.000000 0.000000 0.000000 0.000000 0.000000 0.000000 -0.000000 0.000000 0.000000 -0.000000 0.000000 0.000000 -0.857605 -0.434202 0.073655 -2.514522 -0.822545 -0.226597 0.000000 0.000000 0.000000 0.000000 0.000000 0.000000 0.008911 0.199688 -25.607543 0.926282 -0.982000 0.119185 -0.924373 0.983796 -0.103311 0.000000 0.000000 0.000000 -1.837206 -0.900660 -26.349795 1.309398 2.630917 0.860060 -0.155205 -0.823577 -0.154126 0.000000 0.000000 0.000000
7.570482 76.751440 327.914235 0.093957 -0.263723 25.679236 0.029602 0.278390 -25.679092 -0.000000 0.000000 0.000000 -0.000000 0.000000 0.000000 0.000000 0.000000 0.000000 -0.000000 0.000000 0.000000 -0.000000 0.000000 0.000000 -0.719451 2.193653 0.315554 0.356402 -4.423126 -0.921230 0.000000 0.000000 0.000000 0.000000 0.000000 0.000000 -0.000000 0.000000 0.000000 -0.000000 0.000000 0.000000 -1.109306 0.361216 -0.052300 -0.932475 -1.562230 -0.072545 0.000000 0.000000 0.000000 0.000000 0.000000 0.000000 0.029602 0.278390 -25.679092 1.046479 -1.068539 0.141221 -1.044025 1.070937 -0.121704 0.000000 0.000000 0.000000 -2.192118 -1.159566 -26.605463 1.490656 3.311721 1.058412 -0.165987 -1.028714 -0.184531 0.000000 0.000000 0.000000
7.547027 76.747640 327.885760 0.107412 -0.365340 25.765780 0.062078 0.375708 -25.765641 -0.000000 0.000000 0.000000 -0.000000 0.000000 0.000000 0.000000 0.000000 0.000000 -0.000000 0.000000 0.000000 -0.000000 0.000000 0.000000 -0.359010 3.805111 0.383940 0.099946 -6.207626 -1.093182 0.000000 0.000000 0.000000 0.000000 0.000000 0.000000 -0.000000 0.000000 0.000000 -0.000000 0.000000 0.000000 -1.415940 1.570458 -0.238331 -1.254195 -3.559723 0.014518 0.000000 0.000000 0.000000 0.000000 0.000000 0.000000 0.062078 0.375708 -25.765641 1.024744 -0.953304 0.150569 -1.022378 0.955841 -0.133516 0.000000 0.000000 0.000000 -1.961503 -0.995465 -26.620530 1.260505 2.994253 0.954940 -0.079316 -0.860892 -0.136748 0.000000 0.000000 0.000000
7.531929 76.747828 327.829765 0.136372 -0.451128 25.870527 0.074139 0.465421 -25.870291 -0.000000 0.000000 0.000000 0.314265 0.817953 0.174201 0.000000 0.000000 0.000000 -0.000000 0.000000 0.000000 -0.000000 0.000000 0.000000 -0.233216 3.935638 0.369388 0.182250 -5.508365 -0.864076 0.000000 0.000000 0.000000 0.000000 0.000000 0.000000 -0.000000 0.000000 0.000000 -0.000000 0.000000 0.000000 -1.768321 2.326247 -0.347197 -1.414278 -3.034872 0.159695 0.000000 0.000000 0.000000 0.000000 0.000000 0.000000 0.074139 0.465421 -25.870291 1.036851 -0.737135 0.182921 -1.034579 0.740321 -0.169567 0.000000 0.000000 0.000000 -1.673818 -0.713771 -26.601845 1.035371 1.836873 0.711166 -0.000000 0.000000 0.000000 0.000000 0.000000 0.000000
7.502835 76.751401 327.781820 0.143926 -0.526491 25.955361 0.101021 0.536379 -25.955172 -0.000000 0.000000 0.000000 0.292376 0.892726 0.186784 0.000000 0.000000 0.000000 -0.000000 0.000000 0.000000 -0.000000 0.000000 0.000000 0.444961 4.107291 0.244917 -0.639762 -5.650109 -0.739843 0.000000 0.000000 0.000000 0.000000 0.000000 0.000000 -0.000000 0.000000 0.000000 -0.000000 0.000000 0.000000 -1.834892 1.844666 -0.272281 -1.818740 -2.058773 0.102318 0.000000 0.000000 0.000000 0.000000 0.000000 0.000000 0.101021 0.536379 -25.955172 0.817210 -0.455376 0.160237 -0.815959 0.457613 -0.153731 0.000000 0.000000 0.000000 -1.458778 -0.487649 -26.596865 0.936557 1.613888 0.629164 -0.000000 0.000000 0.000000 0.000000 0.000000 0.000000
7.464088 76.750781 327.736894 0.140481 -0.608381 26.008644 0.140527 0.608370 -26.008645 -0.000000 0.000000 0.000000 0.251535 0.974518 0.199554 0.000000 0.000000 0.000000 -0.000000 0.000000 0.000000 -0.000000 0.000000 0.000000 0.817039 4.239258 0.178659 -1.159177 -5.541850 -0.584549 0.000000 0.000000 0.000000 0.000000 0.000000 0.000000 -0.000000 0.000000 0.000000 -0.000000 0.000000 0.000000 -2.043067 1.848579 -0.268513 -1.784622 -1.766329 0.115279 0.000000 0.000000 0.000000 0.000000 0.000000 0.000000 0.140527 0.608370 -26.008645 0.756996 -0.245607 0.172308 -0.756261 0.247861 -0.169050 0.000000 0.000000 0.000000 -1.290354 -0.343099 -26.597710 0.853642 1.491347 0.581267 -0.000000 0.000000 0.000000 0.000000 0.000000 0.000000
7.422375 76.746136 327.703600 0.126128 -0.679973 26.007648 0.184812 0.666421 -26.007974 -0.000000 0.000000 0.000000 0.185301 1.167058 0.231628 0.000000 0.000000 0.000000 -0.000000 0.000000 0.000000 -0.367206 -0.757968 0.012903 1.359828 4.362100 0.065728 -0.752167 -5.385715 -0.808173 0.000000 0.000000 0.000000 0.000000 0.000000 0.000000 -0.000000 0.000000 0.000000 -0.000000 0.000000 0.000000 -2.096393 0.902418 -0.125735 -3.587230 -0.017199 -0.005175 0.000000 0.000000 0.000000 0.000000 0.000000 0.000000 0.184812 0.666421 -26.007974 -0.000000 0.000000 0.000000 -0.000000 0.000000 0.000000 0.000000 0.000000 0.000000 -0.955905 -0.095658 -26.475320 0.681386 1.190683 0.465948 -0.000000 0.000000 0.000000 0.000000 0.000000 0.000000
7.390586 76.743480 327.666615 0.107322 -0.747009 26.010385 0.231147 0.718411 -26.011135 -0.000000 0.000000 0.000000 0.238830 1.263014 0.252746 0.000000 0.000000 0.000000 -0.000000 0.000000 0.000000 -0.462500 -0.802790 0.028892 2.194046 4.189920 -0.124919 -1.869803 -6.822348 -1.129631 0.000000 0.000000 0.000000 0.000000 0.000000 0.000000 -0.000000 0.000000 0.000000 -0.000000 0.000000 0.000000 -1.985902 0.760004 -0.105656 -2.010680 0.441479 0.058736 0.000000 0.000000 0.000000 0.000000 0.000000 0.000000 0.231147 0.718411 -26.011135 -0.000000 0.000000 0.000000 -0.000000 0.000000 0.000000 0.000000 0.000000 0.000000 -0.767838 0.139364 -26.395436 0.637397 0.962790 0.386424 -0.000000 0.000000 0.000000 0.000000 0.000000 0.000000
7.342621 76.735471 327.649438 0.075460 -0.822887 25.970203 0.292520 0.772835 -25.971634 -0.000000 0.000000 0.000000 0.297412 1.307478 0.264456 0.000000 0.000000 0.000000 -0.000000 0.000000 0.000000 -0.548091 -0.824723 0.044827 2.651279 3.012726 -0.298352 -2.063307 -6.563471 -1.307780 0.000000 0.000000 0.000000 0.000000 0.000000 0.000000 -0.000000 0.000000 0.000000 -0.000000 0.000000 0.000000 -1.661436 0.054155 -0.000889 -1.109963 1.747542 0.035330 0.000000 0.000000 0.000000 0.000000 0.000000 0.000000 0.292520 0.772835 -25.971634 -0.000000 0.000000 0.000000 -0.000000 0.000000 0.000000 0.000000 0.000000 0.000000 -0.672579 0.264600 -26.328292 0.639533 0.883553 0.360465 -0.000000 0.000000 0.000000 0.000000 0.000000 0.000000
7.287663 76.724983 327.664599 0.037995 -0.899818 25.945625 0.359545 0.825743 -25.947918 -0.000000 0.000000 0.000000 0.384566 1.375911 0.282214 0.000000 0.000000 0.000000 -0.000000 0.000000 0.000000 -0.659166 -0.835359 0.067068 2.992523 1.161452 -0.485256 -1.910664 -5.599793 -1.486056 0.000000 0.000000 0.000000 0.000000 0.000000 0.000000 -0.000000 0.000000 0.000000 0.753122 -0.275407 -0.203836 -2.214151 -0.446608 0.331812 -0.438062 2.096136 -0.089467 0.000000 0.000000 0.000000 0.000000 0.000000 0.000000 0.359545 0.825743 -25.947918 -0.000000 0.000000 0.000000 -0.000000 0.000000 0.000000 0.000000 0.000000 0.000000 -0.708088 0.285074 -26.336293 0.716902 0.958200 0.392729 -0.000000 0.000000 0.000000 0.000000 0.000000 0.000000
